<svg width="28" height="22" viewBox="0 0 28 22" fill="none" xmlns="http://www.w3.org/2000/svg">
<path d="M1.25 5.61671C1.25 4.02988 1.25 3.23648 1.55882 2.6304C1.83045 2.09727 2.26389 1.66382 2.79703 1.39219C3.40311 1.08337 4.19652 1.08337 5.78333 1.08337H10.7056C11.3986 1.08337 11.7451 1.08337 12.0712 1.16166C12.3602 1.23106 12.6366 1.34554 12.8902 1.50089C13.1761 1.67611 13.4211 1.92112 13.9112 2.41116L14.0888 2.58892C14.5789 3.07896 14.8239 3.32397 15.1098 3.49919C15.3634 3.65454 15.6398 3.76902 15.9288 3.83842C16.2549 3.91671 16.6014 3.91671 17.2945 3.91671H22.2167C23.8035 3.91671 24.597 3.91671 25.203 4.22553C25.7361 4.49716 26.1696 4.9306 26.4412 5.46374C26.75 6.06981 26.75 6.86323 26.75 8.45004V16.3834C26.75 17.9702 26.75 18.7637 26.4412 19.3697C26.1696 19.9028 25.7361 20.3363 25.203 20.6079C24.597 20.9167 23.8035 20.9167 22.2167 20.9167H5.78333C4.19651 20.9167 3.40311 20.9167 2.79703 20.6079C2.26389 20.3363 1.83045 19.9028 1.55882 19.3697C1.25 18.7637 1.25 17.9702 1.25 16.3834V5.61671Z" stroke="white" stroke-width="2" stroke-linecap="round" stroke-linejoin="round"/>
</svg>
