<svg width="37" height="37" viewBox="0 0 37 37" fill="none" xmlns="http://www.w3.org/2000/svg">
<path d="M14.4146 26.0234C14.4146 26.1313 14.3067 26.2084 14.1525 26.2084C13.9984 26.2084 13.875 26.2084 13.875 26.0234C13.875 25.8384 13.9984 25.8384 14.1371 25.8384C14.2759 25.8384 14.4146 25.9155 14.4146 26.0234ZM12.873 25.7921C12.873 25.9 12.873 26.0234 13.0888 26.0542C13.144 26.0807 13.2075 26.0843 13.2653 26.0641C13.3231 26.0439 13.3705 26.0015 13.3971 25.9463C13.3971 25.8384 13.3971 25.7305 13.1813 25.6842C12.9655 25.638 12.9038 25.6842 12.873 25.7921ZM15.0621 25.715C14.9234 25.715 14.8309 25.8384 14.8463 25.9617C14.8617 26.085 14.985 26.1313 15.1392 26.1005C15.2934 26.0696 15.3705 25.9617 15.355 25.8538C15.3396 25.7459 15.2163 25.6996 15.0621 25.715ZM18.3458 6.16674C16.72 6.15143 15.1077 6.46476 13.6059 7.08792C12.1041 7.71107 10.7437 8.63122 9.60622 9.79313C8.46879 10.955 7.57782 12.3348 6.98678 13.8495C6.39573 15.3642 6.11678 16.9827 6.1667 18.608C6.12366 21.2703 6.91322 23.8795 8.42509 26.0713C9.93695 28.2631 12.0956 29.928 14.5996 30.8334C15.2317 30.9413 15.4629 30.5405 15.4629 30.2167C15.4629 29.893 15.4629 28.1509 15.4629 27.1334C15.4629 27.1334 11.9788 27.9042 11.2388 25.5917C11.2388 25.5917 10.6838 24.05 9.8667 23.7263C9.8667 23.7263 8.72587 22.9246 9.94378 22.94C10.3427 22.9938 10.7234 23.1405 11.0554 23.368C11.3874 23.5956 11.6614 23.8979 11.8555 24.2505C12.0168 24.5667 12.241 24.8466 12.5143 25.0729C12.7877 25.2994 13.1044 25.4676 13.4451 25.5672C13.7858 25.6668 14.1433 25.6958 14.4956 25.6523C14.8479 25.6088 15.1875 25.4937 15.4937 25.3142C15.5522 24.6706 15.8297 24.0665 16.28 23.603C13.505 23.2792 10.6992 22.8784 10.6992 17.9605C10.6697 17.4048 10.759 16.8494 10.961 16.3311C11.163 15.8128 11.4732 15.3433 11.8709 14.9542C11.4957 13.8257 11.5395 12.5998 11.9942 11.5009C13.0425 11.1617 15.4321 12.873 15.4321 12.873C17.4735 12.2972 19.6345 12.2972 21.6758 12.873C21.6758 12.873 24.0654 11.1617 25.1137 11.5009C25.5784 12.5976 25.6222 13.8272 25.2371 14.9542C25.6489 15.338 25.9754 15.8038 26.1958 16.3217C26.4161 16.8395 26.5254 17.3977 26.5167 17.9605C26.5167 22.8938 23.5875 23.2792 20.8125 23.603C21.0914 23.9158 21.3037 24.2822 21.4362 24.6798C21.5687 25.0774 21.6188 25.4978 21.5833 25.9155C21.5833 27.6421 21.5833 29.7696 21.5833 30.1859C21.5824 30.2899 21.6064 30.3928 21.6536 30.4856C21.701 30.5784 21.7697 30.6586 21.8545 30.719C21.9391 30.7796 22.0373 30.8187 22.1403 30.8332C22.2435 30.8479 22.3486 30.8372 22.4467 30.8025C24.9462 29.905 27.1003 28.2449 28.6052 26.0568C30.1101 23.8687 30.8894 21.263 30.8333 18.608C30.8478 16.9662 30.5344 15.3381 29.9114 13.8191C29.2884 12.3001 28.3684 10.9207 27.2053 9.76195C26.0423 8.60317 24.6594 7.68827 23.1381 7.07091C21.6168 6.45355 19.9875 6.14616 18.3458 6.16674ZM11.0075 23.7571C11.0075 23.7571 11.0075 23.9267 11.0075 24.0192C11.0247 24.0365 11.0451 24.0502 11.0676 24.0594C11.0901 24.0689 11.1142 24.0736 11.1386 24.0736C11.1629 24.0736 11.187 24.0689 11.2095 24.0594C11.232 24.0502 11.2524 24.0365 11.2696 24.0192C11.2696 24.0192 11.2696 23.8496 11.2696 23.7417C11.2696 23.6338 11.0692 23.6955 11.0075 23.7571ZM10.468 23.3409C10.468 23.3409 10.468 23.495 10.5759 23.5413C10.5889 23.5575 10.6053 23.5704 10.624 23.5794C10.6427 23.5882 10.6631 23.5929 10.6838 23.5929C10.7045 23.5929 10.7249 23.5882 10.7436 23.5794C10.7623 23.5704 10.7787 23.5575 10.7917 23.5413C10.7917 23.5413 10.7917 23.3871 10.6838 23.3409C10.5759 23.2946 10.4988 23.2946 10.468 23.3409ZM12.0096 25.16C12.0096 25.16 12.0096 25.3759 12.0096 25.4838C12.0096 25.5917 12.2717 25.6071 12.3334 25.4838C12.395 25.3605 12.3334 25.268 12.3334 25.16C12.3334 25.0521 12.133 25.083 12.0713 25.16H12.0096ZM11.4392 24.4046C11.4392 24.4046 11.4392 24.5896 11.4392 24.713C11.4392 24.8363 11.655 24.8825 11.7321 24.8363C11.7712 24.7914 11.7927 24.7339 11.7927 24.6744C11.7927 24.6149 11.7712 24.5574 11.7321 24.5125C11.655 24.3892 11.5317 24.343 11.4392 24.4046Z" fill="white"/>
</svg>
