<svg width="32" height="32" viewBox="0 0 32 32" fill="none" xmlns="http://www.w3.org/2000/svg">
<path d="M16 23.365C23.732 23.365 30 20.0676 30 16C30 11.9324 23.732 8.63501 16 8.63501C8.26801 8.63501 2 11.9324 2 16C2 20.0676 8.26801 23.365 16 23.365Z" fill="url(#paint0_radial_25_2)"/>
<path d="M16 22.818C23.4299 22.818 29.453 19.7655 29.453 16C29.453 12.2345 23.4299 9.18201 16 9.18201C8.57011 9.18201 2.547 12.2345 2.547 16C2.547 19.7655 8.57011 22.818 16 22.818Z" fill="#6280B6"/>
<path d="M18.725 18.2L19.392 14.766C19.487 14.4721 19.5027 14.1583 19.4373 13.8565C19.372 13.5546 19.228 13.2753 19.02 13.047C18.4393 12.6347 17.7283 12.448 17.02 12.522H15.867L16.198 10.822C16.204 10.7904 16.203 10.7578 16.195 10.7266C16.187 10.6953 16.1722 10.6663 16.1516 10.6415C16.1311 10.6166 16.1053 10.5966 16.0762 10.5829C16.047 10.5692 16.0152 10.562 15.983 10.562H14.383C14.3322 10.562 14.283 10.5796 14.2437 10.6119C14.2045 10.6442 14.1777 10.6892 14.168 10.739L13.459 14.385C13.4044 13.9952 13.2388 13.6293 12.982 13.331C12.696 13.0446 12.351 12.824 11.9711 12.6847C11.5911 12.5453 11.1853 12.4905 10.782 12.524H7.69999C7.64919 12.524 7.59996 12.5416 7.56073 12.5739C7.52151 12.6062 7.49473 12.6511 7.48499 12.701L6.05099 20.081C6.04496 20.1127 6.04599 20.1453 6.054 20.1765C6.06201 20.2077 6.07681 20.2367 6.09735 20.2616C6.11788 20.2864 6.14364 20.3064 6.1728 20.3201C6.20195 20.3339 6.23377 20.341 6.26599 20.341H7.86899C7.9198 20.341 7.96903 20.3234 8.00825 20.2911C8.04747 20.2588 8.07425 20.2139 8.08399 20.164L8.43099 18.379H9.63099C10.1608 18.3932 10.6897 18.3257 11.199 18.179C11.6284 18.0369 12.0211 17.8016 12.349 17.49C12.6177 17.2453 12.847 16.9606 13.029 16.646L12.742 18.121C12.736 18.1527 12.737 18.1853 12.745 18.2165C12.753 18.2477 12.7678 18.2767 12.7883 18.3016C12.8089 18.3264 12.8346 18.3464 12.8638 18.3601C12.8929 18.3739 12.9248 18.381 12.957 18.381H14.557C14.6078 18.381 14.657 18.3634 14.6962 18.3311C14.7355 18.2988 14.7622 18.2539 14.772 18.204L15.559 14.153H16.653C17.119 14.153 17.253 14.246 17.293 14.286C17.333 14.326 17.393 14.451 17.318 14.855L16.683 18.12C16.677 18.1517 16.678 18.1843 16.686 18.2155C16.694 18.2467 16.7088 18.2757 16.7293 18.3006C16.7499 18.3254 16.7756 18.3454 16.8048 18.3591C16.8339 18.3729 16.8658 18.38 16.898 18.38H18.518C18.5678 18.3781 18.6155 18.3592 18.6532 18.3264C18.6908 18.2937 18.7161 18.2491 18.725 18.2ZM11.33 15.366C11.2811 15.7858 11.0818 16.1738 10.769 16.458C10.3761 16.7024 9.91533 16.8149 9.45399 16.779H8.74199L9.25699 14.128H10.178C10.855 14.128 11.127 14.273 11.237 14.394C11.3209 14.54 11.3726 14.7023 11.3886 14.87C11.4047 15.0376 11.3847 15.2067 11.33 15.366Z" fill="white"/>
<path d="M25.546 13.332C25.2601 13.0456 24.9151 12.825 24.5351 12.6856C24.1552 12.5462 23.7494 12.4914 23.346 12.525H20.255C20.2042 12.5249 20.155 12.5426 20.1158 12.5749C20.0766 12.6072 20.0498 12.6521 20.04 12.702L18.606 20.082C18.6 20.1136 18.601 20.1462 18.6091 20.1774C18.6171 20.2086 18.6319 20.2377 18.6524 20.2625C18.6729 20.2874 18.6987 20.3073 18.7278 20.3211C18.757 20.3348 18.7888 20.3419 18.821 20.342H20.429C20.4799 20.342 20.5291 20.3243 20.5683 20.292C20.6075 20.2597 20.6343 20.2148 20.644 20.165L20.991 18.38H22.191C22.7209 18.3941 23.2497 18.3267 23.759 18.18C24.1885 18.0379 24.5812 17.8026 24.909 17.491C25.4705 16.9849 25.8488 16.3074 25.985 15.564C26.0926 15.1836 26.109 14.7833 26.0327 14.3954C25.9564 14.0076 25.7897 13.6432 25.546 13.332ZM23.879 15.366C23.8301 15.7858 23.6308 16.1737 23.318 16.458C22.9242 16.7026 22.4623 16.8148 22 16.778H21.29L21.805 14.127H22.726C23.403 14.127 23.675 14.272 23.785 14.393C23.8693 14.539 23.9212 14.7014 23.9374 14.8693C23.9537 15.0371 23.9337 15.2065 23.879 15.366Z" fill="white"/>
<path d="M10.178 13.908C10.3937 13.8808 10.6128 13.8967 10.8223 13.9547C11.0319 14.0127 11.2279 14.1117 11.399 14.246C11.5094 14.4159 11.5798 14.6087 11.6049 14.8098C11.63 15.0109 11.6092 15.2151 11.544 15.407C11.4868 15.8795 11.2584 16.3146 10.902 16.63C10.4721 16.9069 9.96398 17.0367 9.45399 17H8.47599L9.07599 13.911L10.178 13.908ZM6.26099 20.124H7.86899L8.24999 18.162H9.62699C10.1338 18.1758 10.6398 18.1114 11.127 17.971C11.5268 17.839 11.8923 17.6197 12.197 17.329C12.7243 16.8546 13.0795 16.2188 13.207 15.521C13.3079 15.174 13.3256 14.8081 13.2587 14.453C13.1918 14.0979 13.0422 13.7635 12.822 13.477C12.5564 13.2143 12.2368 13.0127 11.8853 12.8863C11.5338 12.7599 11.159 12.7117 10.787 12.745H7.69999L6.26099 20.124Z" fill="#000004"/>
<path d="M14.387 10.782H15.987L15.6 12.744H17.021C17.6737 12.6757 18.3293 12.8415 18.871 13.212C19.0503 13.4158 19.1728 13.6631 19.2264 13.9292C19.2799 14.1953 19.2625 14.4707 19.176 14.728L18.509 18.162H16.89L17.525 14.897C17.5692 14.7724 17.585 14.6394 17.5711 14.5079C17.5573 14.3764 17.5142 14.2497 17.445 14.137C17.2134 13.9711 16.9274 13.8996 16.645 13.937H15.37L14.548 18.165H12.948L14.387 10.782Z" fill="#000004"/>
<path d="M22.7271 13.908C22.9428 13.8808 23.1618 13.8967 23.3714 13.9547C23.581 14.0127 23.777 14.1117 23.9481 14.246C24.0584 14.4159 24.1289 14.6087 24.154 14.8098C24.1791 15.0109 24.1583 15.2151 24.0931 15.407C24.0359 15.8795 23.8075 16.3146 23.4511 16.63C23.0204 16.9075 22.5111 17.0374 22.0001 17H21.0221L21.6221 13.911L22.7271 13.908ZM18.8101 20.124H20.4181L20.7991 18.162H22.1761C22.6829 18.1758 23.1889 18.1114 23.6761 17.971C24.0759 17.839 24.4414 17.6197 24.7461 17.329C25.2734 16.8546 25.6286 16.2188 25.7561 15.521C25.857 15.174 25.8747 14.8081 25.8078 14.453C25.7409 14.0979 25.5913 13.7635 25.3711 13.477C25.1055 13.2143 24.7858 13.0127 24.4344 12.8863C24.0829 12.7599 23.7081 12.7117 23.3361 12.745H20.2441L18.8101 20.124Z" fill="#000004"/>
<defs>
<radialGradient id="paint0_radial_25_2" cx="0" cy="0" r="1" gradientUnits="userSpaceOnUse" gradientTransform="translate(10.406 11.225) scale(18.384)">
<stop stop-color="white"/>
<stop offset="0.5" stop-color="#4C6B96"/>
<stop offset="1" stop-color="#231F20"/>
</radialGradient>
</defs>
</svg>
