<svg width="20" height="20" viewBox="0 0 20 20" fill="none" xmlns="http://www.w3.org/2000/svg">
<g clip-path="url(#clip0_18_572)">
<path d="M19.6814 16.9121L16.1698 13.4005C16.1697 13.4004 16.1697 13.4004 16.1696 13.4002C16.1695 13.4001 16.1695 13.4001 16.1693 13.4L14.9141 12.1447C14.49 11.7207 13.7999 11.7205 13.3758 12.1447L13.2219 12.2986L12.6918 11.7685C13.7303 10.5232 14.3561 8.92234 14.3561 7.17789C14.356 3.22 11.136 0 7.17809 0C3.22017 0 0.000244141 3.22 0.000244141 7.17789C0.000244141 11.1358 3.22017 14.3558 7.17809 14.3558C8.92255 14.3558 10.5234 13.73 11.7687 12.6915L12.2988 13.2216L12.1449 13.3755C11.7209 13.7996 11.7209 14.4896 12.145 14.9138L16.9123 19.6811C17.3373 20.1062 18.0255 20.1063 18.4507 19.6811L19.6814 18.4504C20.1056 18.0263 20.1056 17.3363 19.6814 16.9121ZM7.17809 13.0504C3.93997 13.0504 1.30556 10.416 1.30556 7.17789C1.30556 3.93977 3.93997 1.30535 7.17809 1.30535C10.4162 1.30535 13.0507 3.93977 13.0507 7.17789C13.0507 10.416 10.4162 13.0504 7.17809 13.0504ZM13.2218 14.1446L14.1449 13.2216L14.785 13.8618L13.862 14.7848L13.2218 14.1446ZM17.6815 18.6043L14.785 15.7078L15.708 14.7848L18.6045 17.6813L17.6815 18.6043Z" fill="#787878"/>
<path d="M7.6527 5C7.29223 5 7 5.29223 7 5.6527C7 6.01316 7.29223 6.30539 7.6527 6.30539C9.45133 6.30539 10.9146 7.76855 10.9146 9.56711C10.9146 9.92758 11.2068 10.2198 11.5673 10.2198C11.9278 10.2198 12.22 9.92758 12.22 9.56711C12.22 7.04879 10.1711 5 7.6527 5Z" fill="#787878"/>
</g>
<defs>
<clipPath id="clip0_18_572">
<rect width="20" height="20" fill="white"/>
</clipPath>
</defs>
</svg>
